Coordinates
version=1
nRows=16
nColumns=40
inDegrees=yes

Units are S.I. units (second, meters, Newtons, ...)
Angles are in degrees.

endheader
time	pelvis_tilt	pelvis_list	pelvis_rotation	pelvis_tx	pelvis_ty	pelvis_tz	hip_flexion_r	hip_adduction_r	hip_rotation_r	knee_angle_r	knee_angle_r_beta	ankle_angle_r	subtalar_angle_r	mtp_angle_r	hip_flexion_l	hip_adduction_l	hip_rotation_l	knee_angle_l	knee_angle_l_beta	ankle_angle_l	subtalar_angle_l	mtp_angle_l	lumbar_extension	lumbar_bending	lumbar_rotation	arm_flex_r	arm_add_r	arm_rot_r	elbow_flex_r	pro_sup_r	wrist_flex_r	wrist_dev_r	arm_flex_l	arm_add_l	arm_rot_l	elbow_flex_l	pro_sup_l	wrist_flex_l	wrist_dev_l
     25.79500000	     -5.15513945	     -5.31815358	      4.58291973	      0.90008275	      0.92146474	      0.49620263	     -0.62117957	      4.82515553	    -18.56546431	      8.53255409	      8.53255409	     16.25316863	      5.55497922	     -2.64692215	     31.84750308	     -5.86110745	     -2.78256054	     18.76691413	     18.76691413	      4.60364291	    -10.46939390	      8.26682109	     -7.87736204	      6.11654837	      3.54556484	     42.62797304	    -17.22904350	    -13.68697123	     88.29573578	     44.77396597	      0.00000000	      0.00000000	     -9.96082901	     -7.31849440	     11.56960724	     25.88026757	     43.94922235	      0.00000000	      0.00000000
     25.80721429	     -5.13195773	     -5.33738080	      4.26905897	      0.90174737	      0.92018649	      0.49505811	     -1.18515216	      4.74015194	    -18.22211927	      8.74313363	      8.74313363	     16.72070194	      5.63595805	     -2.69020901	     31.30381686	     -5.96228545	     -2.89948158	     19.51818748	     19.51818748	      4.08669178	    -11.03514995	      8.21994832	     -7.60240662	      6.09420512	      3.64672292	     42.21374733	    -16.98929547	    -13.69468251	     88.21118690	     44.77731086	      0.00000000	      0.00000000	    -10.20129353	     -7.40169380	     11.59795184	     25.85044235	     43.94481858	      0.00000000	      0.00000000
     25.81942857	     -5.13561482	     -5.33336262	      4.00741579	      0.90335665	      0.91891673	      0.49372704	     -1.50398201	      4.55389746	    -17.86684507	      9.42406039	      9.42406039	     17.79583000	      5.48986864	     -1.16766886	     30.71781279	     -5.86384071	     -2.37925946	     19.95731067	     19.95731067	      2.47579199	    -12.88436623	      6.08002582	     -7.31112580	      6.03470966	      3.72393698	     41.73235423	    -16.39543230	    -14.60865695	     88.03876680	     44.84417534	      0.00000000	      0.00000000	    -10.45814786	     -7.63905256	     12.04702885	     26.45593980	     43.94320801	      0.00000000	      0.00000000
     25.83164286	     -5.05051919	     -5.22407652	      3.75686775	      0.90504471	      0.91807001	      0.49235952	     -2.05321341	      4.28593434	    -17.56254466	      9.79810485	      9.79810485	     18.20334963	      5.44885752	     -1.24856645	     30.22753526	     -5.81185102	     -2.44390574	     20.75574057	     20.75574057	      2.27307946	    -13.33451980	      5.94900468	     -7.13743341	      5.81758296	      3.69097629	     40.93264239	    -16.11810771	    -14.54948410	     87.82365556	     44.84813982	      0.00000000	      0.00000000	    -10.44414201	     -7.75448500	     12.05553459	     26.43433529	     43.94845827	      0.00000000	      0.00000000
     25.84385714	     -5.13389909	     -5.10860491	      3.52313688	      0.90635788	      0.91712697	      0.49076404	     -1.99380280	      3.86910829	    -17.17424293	     10.96090506	     10.96090506	     18.77469564	      4.85057805	     -1.14821228	     30.02565966	     -5.65282474	     -2.25187107	     21.57285232	     21.57285232	      1.98288262	    -14.31847988	      5.49816309	     -6.79817889	      5.65013970	      3.76934215	     40.07458819	    -15.90637351	    -14.89404112	     87.44426959	     44.87703429	      0.00000000	      0.00000000	    -10.19286219	     -7.85053361	     12.08299994	     26.42461393	     43.97435195	      0.00000000	      0.00000000
     25.85607143	     -5.03432135	     -4.89557198	      3.34373039	      0.90774777	      0.91689367	      0.48906890	     -2.25814119	      3.39708991	    -16.74804184	     11.86405252	     11.86405252	     19.17948125	      4.40826983	     -1.01544721	     29.58404405	     -5.40910283	     -2.13533892	     22.25053047	     22.25053047	      1.94882294	    -14.96557012	      5.10517861	     -6.71592277	      5.30199379	      3.73045035	     38.95270405	    -15.61404149	    -15.19712223	     87.03322982	     44.90376250	      0.00000000	      0.00000000	     -9.82662685	     -7.99806471	     12.07784293	     26.31364292	     44.00761105	      0.00000000	      0.00000000
     25.86828571	     -4.94747907	     -4.68808114	      3.20631278	      0.90895016	      0.91696137	      0.48712134	     -2.34185409	      2.86386638	    -16.42715058	     13.04666895	     13.04666895	     19.43956071	      3.87193767	     -1.02779962	     29.21324708	     -5.14410694	     -2.04637532	     22.94191362	     22.94191362	      2.17170188	    -15.51892795	      4.79188741	     -6.64896661	      5.01762590	      3.68612650	     37.71626539	    -15.38591799	    -15.46658302	     86.51657742	     44.93095781	      0.00000000	      0.00000000	     -9.29981264	     -8.11827089	     12.04781072	     26.19003112	     44.04470926	      0.00000000	      0.00000000
     25.88050000	     -4.85006962	     -4.47688873	      3.11487828	      0.91002374	      0.91735187	      0.48493668	     -2.28948820	      2.27441805	    -16.13778867	     14.47916547	     14.47916547	     19.60599136	      3.26560898	     -1.20451029	     28.81206454	     -4.84653347	     -1.99093289	     23.53548278	     23.53548278	      2.59492246	    -15.95168042	      4.59005585	     -6.58590491	      4.76232272	      3.63098660	     36.35553222	    -15.21283310	    -15.73969501	     85.86912798	     44.96146110	      0.00000000	      0.00000000	     -8.59001045	     -8.20857290	     12.00284898	     26.04973130	     44.08700990	      0.00000000	      0.00000000
     25.89271429	     -4.56670751	     -4.43470303	      3.12927594	      0.91121678	      0.91842472	      0.48254597	     -2.63433126	      1.92368079	    -16.04881104	     15.48332052	     15.48332052	     19.42017257	      2.98036133	     -1.32495222	     28.16272931	     -4.68526650	     -1.81985247	     23.99202184	     23.99202184	      3.17058897	    -16.20904103	      4.35681321	     -6.76768621	      4.74219271	      3.27622412	     34.88330637	    -14.83553564	    -15.69751812	     85.31729662	     44.97302214	      0.00000000	      0.00000000	     -7.92723666	     -8.28447846	     11.97745689	     26.15029598	     44.10762590	      0.00000000	      0.00000000
     25.90492857	     -4.68080269	     -4.11832825	      3.00536244	      0.91174895	      0.91894157	      0.48002634	     -1.67496788	      0.98185385	    -15.71563932	     18.13878361	     18.13878361	     19.37208614	      1.95519332	     -2.26639928	     27.90257694	     -4.25087587	     -1.93534949	     24.37906879	     24.37906879	      3.82381670	    -16.45363712	      4.53896914	     -6.50765196	      4.39090558	      3.56549862	     33.26523588	    -15.01596592	    -16.23849571	     84.03498201	     45.03403523	      0.00000000	      0.00000000	     -6.79899114	     -8.35381146	     11.87634890	     25.77480084	     44.17733082	      0.00000000	      0.00000000
     25.91714286	     -4.52811471	     -3.92467845	      2.95076960	      0.91245124	      0.92014472	      0.47740881	     -1.18309425	      0.22198418	    -15.52506725	     20.41032822	     20.41032822	     18.98038693	      1.26785870	     -3.12482716	     27.25469380	     -3.94873478	     -2.04373850	     24.58590178	     24.58590178	      4.53705607	    -16.47474248	      4.58239902	     -6.60146995	      4.21497665	      3.53234455	     31.63968012	    -14.93599369	    -16.42197929	     82.94709754	     45.07335067	      0.00000000	      0.00000000	     -5.75433821	     -8.41960663	     11.78983379	     25.70876374	     44.22990542	      0.00000000	      0.00000000
     25.92935714	     -4.49120342	     -3.76327750	      2.91335223	      0.91292277	      0.92130163	      0.47471857	     -0.49773109	     -0.50221985	    -15.26574168	     22.62764279	     22.62764279	     17.37321756	     -0.00200757	     -6.99779689	     26.70934834	     -3.63990785	     -2.09813868	     24.74956375	     24.74956375	      5.67522373	    -16.30057232	      5.76515247	     -6.54521895	      4.06651772	      3.56697730	     29.96861546	    -14.78996158	    -17.13647779	     81.15950135	     45.16996126	      0.00000000	      0.00000000	     -4.16979965	     -8.25742397	     11.39354281	     24.60508510	     44.43103746	      0.00000000	      0.00000000
     25.94157143	     -4.45268966	     -3.70046464	      2.84641847	      0.91332273	      0.92247173	      0.47201624	      0.55074521	     -1.25609771	    -15.09986660	     25.59562778	     25.59562778	     16.49069173	     -0.84812463	     -8.17050538	     26.04101611	     -3.46790030	     -2.29306254	     24.65851774	     24.65851774	      6.22589219	    -16.12223921	      5.55706981	     -6.48176733	      4.12548808	      3.69684926	     28.16575793	    -14.86237794	    -17.02221074	     79.78800937	     45.20794232	      0.00000000	      0.00000000	     -3.17415888	     -8.33823034	     11.19690244	     25.14040048	     44.49832842	      0.00000000	      0.00000000
     25.95378571	     -4.31212235	     -3.59843341	      2.76924734	      0.91362947	      0.92373128	      0.46947081	      1.48511111	     -1.96722405	    -14.68725775	     28.31179790	     28.31179790	     14.00440799	     -2.81665846	    -13.08698221	     25.23781388	     -3.28660390	     -2.58403159	     24.53237053	     24.53237053	      6.78374162	    -15.89636305	      5.43187745	     -6.54995848	      4.06247889	      3.42160438	     26.89210220	    -14.58449377	    -16.86605920	     77.23222542	     45.29685756	      0.00000000	      0.00000000	     -2.22309367	     -8.43578077	     10.49421842	     25.68688810	     44.71464285	      0.00000000	      0.00000000
     25.96600000	     -4.19073168	     -3.45054914	      2.68272812	      0.91372347	      0.92489647	      0.46683925	      2.80662761	     -2.88025113	    -14.40894119	     31.83207032	     31.83207032	     12.83322355	     -3.78842902	    -13.73821006	     24.38883270	     -3.05492937	     -2.95516248	     24.27402324	     24.27402324	      7.25168756	    -15.57907109	      5.20517972	     -6.69740776	      4.04362784	      3.41825547	     25.09260339	    -14.52552634	    -16.71416954	     75.92096959	     45.32865832	      0.00000000	      0.00000000	     -1.07057059	     -8.60992337	     10.34385759	     26.27905386	     44.76428821	      0.00000000	      0.00000000
     25.97821429	     -4.20001228	     -3.45446190	      2.54819907	      0.91359081	      0.92575002	      0.46459786	      4.37846841	     -3.45941913	    -13.68899864	     35.21862216	     35.21862216	     10.24805062	     -6.26549764	    -16.99175095	     23.69697917	     -3.01438403	     -3.28787515	     23.99992084	     23.99992084	      7.60136573	    -15.21307833	      4.64627568	     -6.58981877	      4.09097036	      3.26473650	     23.94212356	    -14.35134193	    -16.39039907	     72.47768148	     45.43109736	      0.00000000	      0.00000000	     -0.22795091	     -8.80455161	      9.68457983	     27.49875768	     44.92865242	      0.00000000	      0.00000000
